<svg xmlns="http://www.w3.org/2000/svg" width="512" height="438" viewBox="-256.785 -125.000 513.570 440.000"><defs><mask id="me9161f5e" maskUnits="userSpaceOnUse" x="-100" y="-100" width="200" height="200"><circle cx="0" cy="0" r="100" fill="white" /><path d="M-123.186,-41.644 L121.134,47.282 L123.186,41.644 L-121.134,-47.282 Z" fill="black" /></mask></defs><circle cx="0" cy="0" r="100" fill="#000000" mask="url(#me9161f5e)" /><g transform="translate(-226.785 290.000) scale(0.092264)"><g transform="translate(0 0) scale(1 -1)"><path d="M914 0 548 499 416 401V0H236V1484H416V557L891 1082H1102L663 617L1125 0Z" fill="#000000" /></g>
    <g transform="translate(1229 0) scale(1 -1)"><path d="M322 503Q322 321 402.5 218.0Q483 115 623 115Q726 115 803.5 159.5Q881 204 907 281L1065 236Q1021 112 903.5 46.0Q786 -20 623 -20Q387 -20 260.0 127.0Q133 274 133 548Q133 815 257.5 958.5Q382 1102 617 1102Q852 1102 973.0 959.0Q1094 816 1094 527V503ZM619 969Q485 969 407.0 881.5Q329 794 324 641H908Q880 969 619 969Z" fill="#000000" /></g>
    <g transform="translate(2458 0) scale(1 -1)"><path d="M1045 918Q933 937 833 937Q672 937 573.0 816.0Q474 695 474 508V0H294V701Q294 777 280.5 880.0Q267 983 242 1082H413Q453 944 461 832H466Q516 944 564.0 996.5Q612 1049 678.0 1075.5Q744 1102 839 1102Q943 1102 1045 1085Z" fill="#000000" /></g>
    <g transform="translate(3687 0) scale(1 -1)"><path d="M580 940V0H400V940H138V1082H400V1107Q400 1312 496.5 1398.0Q593 1484 818 1484Q890 1484 973.5 1477.5Q1057 1471 1099 1463V1318Q1069 1323 977.5 1329.0Q886 1335 839 1335Q735 1335 682.0 1312.0Q629 1289 604.5 1237.0Q580 1185 580 1092V1082H1071V940Z" fill="#000000" /></g></g></svg>